<svg width="22" height="13" viewBox="0 0 22 13" fill="none" xmlns="http://www.w3.org/2000/svg">
<path d="M2.63672 8.28809V12.7969H0V0H4.99219C5.95312 0 6.79688 0.175781 7.52344 0.527344C8.25586 0.878906 8.81836 1.37988 9.21094 2.03027C9.60352 2.6748 9.7998 3.41016 9.7998 4.23633C9.7998 5.49023 9.36914 6.48047 8.50781 7.20703C7.65234 7.92773 6.46582 8.28809 4.94824 8.28809H2.63672ZM2.63672 6.15234H4.99219C5.68945 6.15234 6.21973 5.98828 6.58301 5.66016C6.95215 5.33203 7.13672 4.86328 7.13672 4.25391C7.13672 3.62695 6.95215 3.12012 6.58301 2.7334C6.21387 2.34668 5.7041 2.14746 5.05371 2.13574H2.63672V6.15234Z" fill="white"/>
<path d="M14.2559 8.28809V12.7969H11.6191V0H16.6113C17.5723 0 18.416 0.175781 19.1426 0.527344C19.875 0.878906 20.4375 1.37988 20.8301 2.03027C21.2227 2.6748 21.4189 3.41016 21.4189 4.23633C21.4189 5.49023 20.9883 6.48047 20.127 7.20703C19.2715 7.92773 18.085 8.28809 16.5674 8.28809H14.2559ZM14.2559 6.15234H16.6113C17.3086 6.15234 17.8389 5.98828 18.2021 5.66016C18.5713 5.33203 18.7559 4.86328 18.7559 4.25391C18.7559 3.62695 18.5713 3.12012 18.2021 2.7334C17.833 2.34668 17.3232 2.14746 16.6729 2.13574H14.2559V6.15234Z" fill="white"/>
</svg>
