<?xml version="1.0" standalone="no"?>
<!DOCTYPE svg PUBLIC "-//W3C//DTD SVG 20010904//EN"
 "http://www.w3.org/TR/2001/REC-SVG-20010904/DTD/svg10.dtd">
<svg version="1.0" xmlns="http://www.w3.org/2000/svg"
 width="700.000000pt" height="700.000000pt" viewBox="0 0 700.000000 700.000000"
 preserveAspectRatio="xMidYMid meet">
<metadata>
Created by potrace 1.11, written by Peter Selinger 2001-2013
</metadata>
<g transform="translate(0.000000,700.000000) scale(0.100000,-0.100000)"
fill="#000000" stroke="none">
<path d="M0 3500 l0 -3500 3500 0 3500 0 0 3500 0 3500 -3500 0 -3500 0 0
-3500z m2535 1229 c422 -42 710 -284 782 -653 21 -112 13 -305 -17 -401 -39
-123 -87 -202 -180 -295 -72 -73 -101 -94 -190 -138 -188 -94 -303 -112 -701
-112 l-289 0 0 -440 0 -440 -255 0 -255 0 0 1245 0 1245 498 0 c289 0 544 -5
607 -11z m2260 0 c138 -14 254 -47 375 -107 78 -39 111 -63 186 -137 96 -95
129 -143 175 -255 89 -220 75 -506 -34 -703 -100 -178 -292 -311 -535 -369
-77 -18 -128 -21 -424 -25 l-338 -5 0 -439 0 -439 -255 0 -255 0 0 1245 0
1245 498 0 c289 0 544 -5 607 -11z"/>
<path d="M1940 3930 l0 -390 238 0 c347 0 431 17 526 102 82 73 101 124 101
273 0 114 -2 123 -32 187 -35 74 -92 137 -154 168 -89 46 -120 50 -406 50
l-273 0 0 -390z"/>
<path d="M4200 3930 l0 -390 234 0 c263 0 367 11 443 45 70 32 136 95 164 158
21 45 24 67 24 172 0 114 -2 123 -32 187 -34 73 -95 138 -158 170 -82 42 -127
48 -407 48 l-268 0 0 -390z"/>
</g>
</svg>
